<?xml version="1.0" encoding="UTF-8"?>
<svg width="18px" height="18px" viewBox="0 0 18 18" version="1.1" xmlns="http://www.w3.org/2000/svg" xmlns:xlink="http://www.w3.org/1999/xlink">
    <title>google-logo</title>
    <g id="APPROVED-SCREENS" stroke="none" stroke-width="1" fill="none" fill-rule="evenodd">
        <g id="Login" transform="translate(-659.000000, -421.000000)" fill="#FFFFFF">
            <g id="Fields" transform="translate(649.244444, 128.711111)">
                <g id="Group-Copy" transform="translate(0.000000, 283.733333)">
                    <g id="google-logo" transform="translate(9.955556, 9.244444)">
                        <path d="M17.0666667,8.58524444 C17.0666667,3.84259556 13.2472889,0 8.53333333,0 C3.81935644,0 0,3.84259556 0,8.58524444 C0,12.8702578 3.12051911,16.4220444 7.2,17.0666667 C7.2,17.0666667 7.2,15.0667852 7.2,11.0670222 L5.032256,11.0670222 L5.032256,8.58524444 L7.2,8.58524444 C7.2,7.32423585 7.2,6.69373156 7.2,6.69373156 C7.2,4.54222933 8.47310222,3.353792 10.42304,3.353792 C11.3568711,3.353792 12.33344,3.521344 12.33344,3.521344 C12.33344,3.521344 12.33344,4.22524207 12.33344,5.63303822 C11.6158815,5.63303822 11.2571022,5.63303822 11.2571022,5.63303822 C10.1973333,5.63303822 9.86666667,6.29493333 9.86666667,6.97379556 C9.86666667,6.97379556 9.86666667,7.51094519 9.86666667,8.58524444 L12.2333156,8.58524444 L11.8547911,11.0670222 L9.86666667,11.0670222 C9.86666667,15.0667852 9.86666667,17.0666667 9.86666667,17.0666667 C13.9461689,16.4220444 17.0666667,12.8702578 17.0666667,8.58524444 Z" id="Vector"></path>
                    </g>
                </g>
            </g>
        </g>
    </g>
</svg>