<?xml version="1.0" encoding="UTF-8"?>
<svg width="16px" height="15px" viewBox="0 0 16 15" version="1.1" xmlns="http://www.w3.org/2000/svg" xmlns:xlink="http://www.w3.org/1999/xlink">
    <title>google-logo</title>
    <defs>
        <path d="M14.0568475,5.81818182 L7.27648579,5.81818182 L7.27648579,8.56565657 L11.1793282,8.56565657 C10.8155039,10.3111111 9.29405685,11.3131313 7.27648579,11.3131313 C4.89509044,11.3131313 2.97674419,9.43838384 2.97674419,7.11111111 C2.97674419,4.78383838 4.89509044,2.90909091 7.27648579,2.90909091 C8.30180879,2.90909091 9.22790698,3.26464646 9.95555556,3.84646465 L12.0723514,1.77777778 C10.7824289,0.678787879 9.12868217,0 7.27648579,0 C3.24134367,0 0,3.16767677 0,7.11111111 C0,11.0545455 3.24134367,14.2222222 7.27648579,14.2222222 C10.9147287,14.2222222 14.2222222,11.6363636 14.2222222,7.11111111 C14.2222222,6.69090909 14.1560724,6.23838384 14.0568475,5.81818182 Z" id="path-1"></path>
        <path d="M14.0568475,5.81818182 L7.27648579,5.81818182 L7.27648579,8.56565657 L11.1793282,8.56565657 C10.8155039,10.3111111 9.29405685,11.3131313 7.27648579,11.3131313 C4.89509044,11.3131313 2.97674419,9.43838384 2.97674419,7.11111111 C2.97674419,4.78383838 4.89509044,2.90909091 7.27648579,2.90909091 C8.30180879,2.90909091 9.22790698,3.26464646 9.95555556,3.84646465 L12.0723514,1.77777778 C10.7824289,0.678787879 9.12868217,0 7.27648579,0 C3.24134367,0 0,3.16767677 0,7.11111111 C0,11.0545455 3.24134367,14.2222222 7.27648579,14.2222222 C10.9147287,14.2222222 14.2222222,11.6363636 14.2222222,7.11111111 C14.2222222,6.69090909 14.1560724,6.23838384 14.0568475,5.81818182 Z" id="path-3"></path>
        <path d="M14.0568475,5.81818182 L7.27648579,5.81818182 L7.27648579,8.56565657 L11.1793282,8.56565657 C10.8155039,10.3111111 9.29405685,11.3131313 7.27648579,11.3131313 C4.89509044,11.3131313 2.97674419,9.43838384 2.97674419,7.11111111 C2.97674419,4.78383838 4.89509044,2.90909091 7.27648579,2.90909091 C8.30180879,2.90909091 9.22790698,3.26464646 9.95555556,3.84646465 L12.0723514,1.77777778 C10.7824289,0.678787879 9.12868217,0 7.27648579,0 C3.24134367,0 0,3.16767677 0,7.11111111 C0,11.0545455 3.24134367,14.2222222 7.27648579,14.2222222 C10.9147287,14.2222222 14.2222222,11.6363636 14.2222222,7.11111111 C14.2222222,6.69090909 14.1560724,6.23838384 14.0568475,5.81818182 Z" id="path-5"></path>
        <path d="M14.0568475,5.81818182 L7.27648579,5.81818182 L7.27648579,8.56565657 L11.1793282,8.56565657 C10.8155039,10.3111111 9.29405685,11.3131313 7.27648579,11.3131313 C4.89509044,11.3131313 2.97674419,9.43838384 2.97674419,7.11111111 C2.97674419,4.78383838 4.89509044,2.90909091 7.27648579,2.90909091 C8.30180879,2.90909091 9.22790698,3.26464646 9.95555556,3.84646465 L12.0723514,1.77777778 C10.7824289,0.678787879 9.12868217,0 7.27648579,0 C3.24134367,0 0,3.16767677 0,7.11111111 C0,11.0545455 3.24134367,14.2222222 7.27648579,14.2222222 C10.9147287,14.2222222 14.2222222,11.6363636 14.2222222,7.11111111 C14.2222222,6.69090909 14.1560724,6.23838384 14.0568475,5.81818182 Z" id="path-7"></path>
    </defs>
    <g id="APPROVED-SCREENS" stroke="none" stroke-width="1" fill="none" fill-rule="evenodd">
        <g id="Login" transform="translate(-659.000000, -373.000000)">
            <g id="Fields" transform="translate(649.244444, 128.711111)">
                <g id="Group-Copy" transform="translate(0.000000, 233.955556)">
                    <g id="google-logo" transform="translate(10.666667, 10.666667)">
                        <g id="Clipped">
                            <mask id="mask-2" fill="white">
                                <use xlink:href="#path-1"></use>
                            </mask>
                            <g id="a"></g>
                            <polygon id="Shape" fill="#FBBC05" fill-rule="nonzero" mask="url(#mask-2)" points="-0.661498708 11.3131313 -0.661498708 2.90909091 4.96124031 7.11111111"></polygon>
                        </g>
                        <g id="Clipped">
                            <mask id="mask-4" fill="white">
                                <use xlink:href="#path-3"></use>
                            </mask>
                            <g id="a"></g>
                            <polygon id="Shape" fill="#EA4335" fill-rule="nonzero" mask="url(#mask-4)" points="-0.661498708 2.90909091 4.96124031 7.11111111 7.27648579 5.13939394 15.2144703 3.87878788 15.2144703 -0.646464646 -0.661498708 -0.646464646"></polygon>
                        </g>
                        <g id="Clipped">
                            <mask id="mask-6" fill="white">
                                <use xlink:href="#path-5"></use>
                            </mask>
                            <g id="a"></g>
                            <polygon id="Shape" fill="#34A853" fill-rule="nonzero" mask="url(#mask-6)" points="-0.661498708 11.3131313 9.26098191 3.87878788 11.8739018 4.2020202 15.2144703 -0.646464646 15.2144703 14.8686869 -0.661498708 14.8686869"></polygon>
                        </g>
                        <g id="Clipped">
                            <mask id="mask-8" fill="white">
                                <use xlink:href="#path-7"></use>
                            </mask>
                            <g id="a"></g>
                            <polygon id="Shape" fill="#4285F4" fill-rule="nonzero" mask="url(#mask-8)" points="15.2144703 14.8686869 4.96124031 7.11111111 3.63824289 6.14141414 15.2144703 2.90909091"></polygon>
                        </g>
                    </g>
                </g>
            </g>
        </g>
    </g>
</svg>