<?xml version="1.0" encoding="utf-8"?>
<!-- Svg Vector Icons : http://www.onlinewebfonts.com/icon -->
<!DOCTYPE svg PUBLIC "-//W3C//DTD SVG 1.1//EN" "http://www.w3.org/Graphics/SVG/1.1/DTD/svg11.dtd">
<svg version="1.1" xmlns="http://www.w3.org/2000/svg" xmlns:xlink="http://www.w3.org/1999/xlink" x="0px" y="0px" viewBox="0 0 1000 1000" enable-background="new 0 0 1000 1000" xml:space="preserve">
<metadata> Svg Vector Icons : http://www.onlinewebfonts.com/icon </metadata>
<g><path d="M837.2,689.4L707,559.3c10.2-25.4,16-52.6,16-81.6c0-123-99.9-222.8-222.9-222.8c-29,0-56.1,5.8-81.5,16l-96.3-96.3c55.3-20,115-31.2,177.4-31.2c222.8,0,413.1,138.5,490.2,334.2C957.5,560.6,904.5,633.3,837.2,689.4z M500.7,344.5c74,0,133.7,59.7,133.7,133.7l-0.9,7.1L493.1,344.9L500.7,344.5z M844.7,923.4L714.1,793.2l-18.7-18.7C635.2,798.6,569.3,812,500.2,812C277.4,812,87.1,673.4,10,477.7c34.7-88.3,92.7-164.9,166.7-222.4l-20.6-20.5L54.6,133.2l56.6-56.6l790.2,790.1L844.7,923.4z M529.2,607.8c-9.4,2.3-19.1,3.6-29,3.6c-73.9,0-133.7-59.7-133.7-133.7c0-9.9,1.3-19.6,3.6-29L301,379.6c-14.7,29.9-23.6,62.9-23.6,98.1c0,123,99.8,222.8,222.8,222.8c35.2,0,68.2-8.9,98.1-23.6L529.2,607.8z"/></g>
</svg>