<?xml version="1.0" encoding="UTF-8"?>
<svg width="15px" height="11px" viewBox="0 0 15 11" version="1.1" xmlns="http://www.w3.org/2000/svg" xmlns:xlink="http://www.w3.org/1999/xlink">
    <title>visible</title>
    <g id="APPROVED-SCREENS" stroke="none" stroke-width="1" fill="none" fill-rule="evenodd">
        <g id="Login" transform="translate(-862.000000, -226.000000)" fill="#000000" fill-rule="nonzero">
            <g id="Fields" transform="translate(649.244444, 128.711111)">
                <path d="M220.444444,97.4222222 C217.212121,97.4222222 214.451717,99.4863407 213.333333,102.4 C214.451717,105.313659 217.212121,107.377778 220.444444,107.377778 C223.676768,107.377778 226.437172,105.313659 227.555556,102.4 C226.437172,99.4863407 223.676768,97.4222222 220.444444,97.4222222 Z M220.444444,105.718519 C218.660202,105.718519 217.212121,104.231822 217.212121,102.4 C217.212121,100.568178 218.660202,99.0814815 220.444444,99.0814815 C222.228687,99.0814815 223.676768,100.568178 223.676768,102.4 C223.676768,104.231822 222.228687,105.718519 220.444444,105.718519 Z M220.444444,100.408889 C219.371313,100.408889 218.505051,101.298252 218.505051,102.4 C218.505051,103.501748 219.371313,104.391111 220.444444,104.391111 C221.517576,104.391111 222.383838,103.501748 222.383838,102.4 C222.383838,101.298252 221.517576,100.408889 220.444444,100.408889 Z" id="visible"></path>
            </g>
        </g>
    </g>
</svg>