<svg xmlns="http://www.w3.org/2000/svg" width="15" height="17.143" viewBox="0 0 15 17.143">
  <path id="skull-crossbones" d="M14.7,15.169,9.947,12.857,14.7,10.545a.535.535,0,0,0,.239-.719l-.479-.959a.536.536,0,0,0-.719-.24L7.5,11.665,1.252,8.628a.536.536,0,0,0-.719.24l-.479.959a.536.536,0,0,0,.239.719l4.754,2.312L.294,15.169a.536.536,0,0,0-.239.719l.479.959a.536.536,0,0,0,.719.239L7.5,14.048l6.245,3.037a.536.536,0,0,0,.719-.239l.479-.959A.536.536,0,0,0,14.7,15.169ZM5.02,7.944l-.183.866a.653.653,0,0,0,.551.832H9.609a.653.653,0,0,0,.551-.832l-.184-.866a4.2,4.2,0,0,0,2.344-3.659A4.577,4.577,0,0,0,7.5,0,4.577,4.577,0,0,0,2.676,4.286,4.2,4.2,0,0,0,5.02,7.944ZM9.373,3.75A1.071,1.071,0,1,1,8.3,4.821,1.072,1.072,0,0,1,9.373,3.75Zm-3.75,0A1.071,1.071,0,1,1,4.551,4.821,1.072,1.072,0,0,1,5.623,3.75Z" transform="translate(0.002)" fill="#eb675e"/>
</svg>
