<svg xmlns="http://www.w3.org/2000/svg" width="15" height="13.125" viewBox="0 0 15 13.125">
  <path id="comment-dollar" d="M7.5,32C3.358,32,0,34.728,0,38.094a5.414,5.414,0,0,0,1.671,3.83A7.5,7.5,0,0,1,.064,44.729a.234.234,0,0,0,.17.4A6.7,6.7,0,0,0,4.354,43.62a8.926,8.926,0,0,0,3.146.568c4.142,0,7.5-2.728,7.5-6.094S11.642,32,7.5,32Zm.7,8.861v.514a.469.469,0,0,1-.469.469H7.266a.469.469,0,0,1-.469-.469v-.519a2.14,2.14,0,0,1-.931-.336.351.351,0,0,1-.045-.538l.513-.513a.362.362,0,0,1,.413-.059.718.718,0,0,0,.3.065h.96a.247.247,0,0,0,.068-.484L6.609,38.57a1.716,1.716,0,0,1-1.257-1.4A1.649,1.649,0,0,1,6.8,35.327v-.514a.469.469,0,0,1,.469-.469h.469a.469.469,0,0,1,.469.469v.519a2.14,2.14,0,0,1,.931.336.351.351,0,0,1,.045.538l-.513.513a.362.362,0,0,1-.413.059.718.718,0,0,0-.3-.065h-.96a.247.247,0,0,0-.068.484l1.467.419a1.716,1.716,0,0,1,1.257,1.4A1.648,1.648,0,0,1,8.2,40.861Z" transform="translate(0 -32)" fill="#98aeca"/>
</svg>
